<svg width="16" height="20" viewBox="0 0 16 20" fill="none" xmlns="http://www.w3.org/2000/svg">
<path d="M13.2201 0C14.2159 0 15.0512 0.813008 15.0833 1.85366V18.1138C15.0833 19.1545 14.2481 20 13.2201 20H2.77982C1.75185 20 0.916626 19.1545 0.916626 18.1138V1.85366C0.916626 0.813008 1.75185 0 2.74769 0H13.2201ZM13.188 1.10569H2.74769C2.33008 1.10569 2.00884 1.46341 2.00884 1.85366V18.1138C2.00884 18.5366 2.3622 18.8618 2.74769 18.8618H13.188C13.6056 18.8618 13.9268 18.5041 13.9268 18.1138V1.85366C13.9268 1.43089 13.5735 1.10569 13.188 1.10569ZM11.4854 8.68293C12.0636 8.68293 12.5776 9.17073 12.5776 9.78862C12.5776 10.4065 12.0958 10.8943 11.4854 10.8943C10.8751 10.8943 10.3932 10.4065 10.3932 9.78862C10.3932 9.17073 10.8751 8.68293 11.4854 8.68293Z" fill="#45525B"/>
</svg>
