<svg width="102" height="37" viewBox="0 0 102 37" fill="none" xmlns="http://www.w3.org/2000/svg">
<path fill-rule="evenodd" clip-rule="evenodd" d="M57.5929 24.5816C59.0075 24.5816 60.136 24.9396 60.9793 25.656C61.8222 26.3725 62.2866 27.3388 62.3726 28.5544H59.5002C59.4575 28.0764 59.261 27.6968 58.9113 27.415C58.5607 27.1323 58.0926 26.9916 57.5074 26.9916C56.9641 26.9916 56.5461 27.0923 56.253 27.2955C55.9605 27.4978 55.8137 27.7805 55.8137 28.1418C55.8137 28.5473 56.0143 28.855 56.4137 29.0653C56.8141 29.2746 57.4359 29.4882 58.2793 29.7056C59.1366 29.922 59.8439 30.1473 60.4011 30.3788C60.9584 30.6102 61.4396 30.9678 61.8468 31.4528C62.2541 31.9378 62.465 32.5785 62.4794 33.3745C62.4794 34.0689 62.2899 34.6917 61.9114 35.2422C61.5329 35.7916 60.9896 36.2226 60.2823 36.5335C59.575 36.8445 58.7502 36.9997 57.8074 36.9997C56.8349 36.9997 55.9637 36.8224 55.1928 36.4681C54.421 36.1139 53.8098 35.6326 53.3598 35.0248C52.9098 34.417 52.6636 33.7438 52.62 33.0052H55.6428C55.6995 33.4691 55.9247 33.8525 56.3176 34.1564C56.71 34.4603 57.1995 34.6122 57.7856 34.6122C58.3568 34.6122 58.804 34.4965 59.1249 34.2651C59.4468 34.0336 59.6075 33.7368 59.6075 33.3745C59.6075 32.9841 59.411 32.6905 59.0177 32.4953C58.6252 32.2991 58.0001 32.0865 57.1428 31.855C56.2568 31.6377 55.5318 31.4133 54.968 31.1818C54.4028 30.9503 53.9171 30.5952 53.5098 30.1181C53.1025 29.6402 52.8991 28.9961 52.8991 28.1851C52.8991 27.5199 53.0886 26.9121 53.4671 26.3617C53.8455 25.8113 54.3889 25.3775 55.0962 25.0586C55.8035 24.7406 56.6353 24.5816 57.5929 24.5816ZM75.3389 24.5818C76.2241 24.5818 76.9996 24.763 77.6642 25.1242C78.3288 25.4865 78.8605 25.9423 79.2608 26.4918V24.7771H82.2828V36.8048H79.2608V35.0458C78.8754 35.6103 78.3427 36.0775 77.6642 36.4458C76.9857 36.8151 76.2032 37 75.3171 37C74.3167 37 73.4065 36.7394 72.585 36.2181C71.7625 35.6978 71.1128 34.963 70.634 34.0151C70.1552 33.0671 69.9165 31.9776 69.9165 30.7469C69.9165 29.5313 70.1552 28.4535 70.634 27.5122C71.1128 26.5723 71.7625 25.8487 72.585 25.3416C73.4065 24.8354 74.3237 24.5818 75.3389 24.5818ZM96.1489 24.5816C97.2774 24.5816 98.2894 24.8272 99.182 25.3192C100.074 25.8113 100.767 26.5104 101.261 27.415C101.754 28.3197 102 29.3575 102 30.5308C102 30.9645 101.971 31.355 101.915 31.7031H93.2343C93.3058 32.5715 93.6058 33.2518 94.1343 33.7439C94.6628 34.2359 95.3134 34.4815 96.0844 34.4815C97.1989 34.4815 97.9926 33.9974 98.4635 33.0274H101.7C101.357 34.1856 100.7 35.1368 99.7281 35.8825C98.7566 36.6281 97.5635 36.9998 96.1489 36.9998C95.0055 36.9998 93.981 36.7429 93.0731 36.2297C92.1661 35.7155 91.4588 34.9886 90.9512 34.0478C90.4446 33.1069 90.191 32.0211 90.191 30.7904C90.191 29.5466 90.4404 28.4538 90.941 27.512C91.4407 26.572 92.1411 25.8485 93.0415 25.3414C93.9416 24.8352 94.9777 24.5816 96.1489 24.5816ZM51.8271 21.6284V24.1038H46.1474V27.9036H51.1849V30.3131H46.1474V34.3293H51.8271V36.8047H43.1473V21.6284H51.8271ZM67.1518 21.8023V24.7769H69.8092V27.2735H67.1518V33.0924C67.1518 33.4974 67.248 33.7905 67.4407 33.9716C67.6339 34.1528 67.9585 34.2426 68.4164 34.2426H69.8092V36.8046H67.9228C65.3936 36.8046 64.129 35.5598 64.129 33.0708V27.2735H62.7144V24.7769H64.129V21.8023H67.1518ZM87.4272 21.8023V24.7769H90.0845V27.2735H87.4272V33.0924C87.4272 33.4974 87.5233 33.7905 87.716 33.9716C87.9092 34.1528 88.2338 34.2426 88.6917 34.2426H90.0845V36.8046H88.1981C85.6689 36.8046 84.4043 35.5598 84.4043 33.0708V27.2735H82.9897V24.7769H84.4043V21.8023H87.4272ZM76.1098 27.2525C75.5525 27.2525 75.0389 27.3894 74.5671 27.6651C74.0952 27.9398 73.7135 28.3416 73.4204 28.8689C73.1274 29.3982 72.9811 30.0234 72.9811 30.7469C72.9811 31.4714 73.1274 32.1041 73.4204 32.6475C73.7135 33.1899 74.0989 33.6058 74.5777 33.8956C75.0566 34.1854 75.5674 34.3293 76.1098 34.3293C76.6671 34.3293 77.1887 34.1891 77.6754 33.9064C78.1602 33.6246 78.5466 33.2191 78.8327 32.6908C79.1178 32.1625 79.2608 31.5288 79.2608 30.7902C79.2608 30.0526 79.1178 29.4194 78.8327 28.8911C78.5466 28.3627 78.1602 27.9572 77.6754 27.6754C77.1887 27.3927 76.6671 27.2525 76.1098 27.2525ZM96.0635 27.0782C95.3204 27.0782 94.6953 27.3064 94.1877 27.7622C93.681 28.2181 93.3699 28.8513 93.2556 29.6614H98.8926C98.8778 28.8805 98.5996 28.2543 98.0562 27.7843C97.5138 27.3134 96.8492 27.0782 96.0635 27.0782Z" fill="#45525B"/>
<path fill-rule="evenodd" clip-rule="evenodd" d="M20.8587 0L35.9353 15.3071V36.8048H32.4369V16.773L18.3825 2.50838L20.8587 0ZM10.968 10.0331L21.9354 21.1712V36.8049H0V21.1712L10.968 10.0331ZM15.9132 5.01652L28.939 18.2391V36.8045H25.4406V19.705L13.4439 7.5249L15.9132 5.01652Z" fill="#FF8A63"/>
</svg>
