<svg width="160" height="58" viewBox="0 0 160 58" fill="none" xmlns="http://www.w3.org/2000/svg">
<g clip-path="url(#clip0_4_482)">
<path fill-rule="evenodd" clip-rule="evenodd" d="M90.3417 38.5331C92.5607 38.5331 94.3309 39.0943 95.6539 40.2174C96.9761 41.3406 97.7045 42.8553 97.8393 44.7608H93.3336C93.2666 44.0116 92.9585 43.4165 92.4099 42.9747C91.8599 42.5315 91.1256 42.311 90.2077 42.311C89.3554 42.311 88.6997 42.4689 88.2401 42.7874C87.7811 43.1045 87.5509 43.5477 87.5509 44.1141C87.5509 44.7498 87.8656 45.2321 88.4921 45.5617C89.1201 45.8899 90.0955 46.2247 91.4184 46.5654C92.7632 46.9046 93.8727 47.2578 94.7469 47.6206C95.6211 47.9835 96.3758 48.5439 97.0147 49.3042C97.6535 50.0645 97.9843 51.0689 98.0069 52.3167C98.0069 53.4052 97.7096 54.3815 97.1159 55.2443C96.5222 56.1057 95.6699 56.7812 94.5604 57.2686C93.4509 57.7561 92.1571 57.9994 90.6783 57.9994C89.1528 57.9994 87.7862 57.7214 86.5769 57.1661C85.3662 56.6108 84.4075 55.8564 83.7016 54.9036C82.9957 53.9509 82.6096 52.8956 82.5411 51.7378H87.2828C87.3717 52.4649 87.725 53.0659 88.3413 53.5423C88.9569 54.0187 89.7247 54.2569 90.6441 54.2569C91.5401 54.2569 92.2416 54.0755 92.745 53.7127C93.2499 53.3498 93.5019 52.8845 93.5019 52.3167C93.5019 51.7046 93.1938 51.2444 92.5767 50.9384C91.9612 50.6309 90.9806 50.2976 89.6358 49.9347C88.2459 49.594 87.1087 49.2423 86.2243 48.8795C85.3378 48.5166 84.5758 47.9599 83.9369 47.2121C83.298 46.4629 82.9789 45.4533 82.9789 44.1819C82.9789 43.1392 83.2762 42.1864 83.8699 41.3236C84.4636 40.4608 85.3159 39.7809 86.4254 39.2809C87.5349 38.7824 88.8396 38.5331 90.3417 38.5331ZM118.179 38.5336C119.567 38.5336 120.784 38.8175 121.826 39.3838C122.869 39.9517 123.703 40.6662 124.331 41.5276V38.8396H129.071V57.6938H124.331V54.9365C123.726 55.8215 122.891 56.5537 121.826 57.1312C120.762 57.7101 119.534 57.9999 118.144 57.9999C116.575 57.9999 115.147 57.5913 113.859 56.7742C112.569 55.9586 111.549 54.8067 110.798 53.3208C110.047 51.8348 109.673 50.1269 109.673 48.1978C109.673 46.2922 110.047 44.6027 110.798 43.1271C111.549 41.6537 112.569 40.5195 113.859 39.7245C115.147 38.931 116.586 38.5336 118.179 38.5336ZM150.822 38.5332C152.592 38.5332 154.179 38.9181 155.58 39.6895C156.979 40.4609 158.067 41.5567 158.841 42.9748C159.614 44.3929 160 46.0197 160 47.8589C160 48.5388 159.955 49.1509 159.866 49.6966H146.25C146.362 51.0579 146.833 52.1243 147.662 52.8957C148.491 53.667 149.511 54.052 150.721 54.052C152.469 54.052 153.714 53.2931 154.453 51.7725H159.529C158.992 53.5881 157.96 55.0792 156.436 56.2481C154.912 57.4169 153.041 57.9995 150.822 57.9995C149.028 57.9995 147.421 57.5969 145.997 56.7923C144.574 55.9863 143.465 54.8469 142.669 53.372C141.874 51.8972 141.476 50.1951 141.476 48.266C141.476 46.3162 141.867 44.6031 142.653 43.1267C143.436 41.6533 144.535 40.5191 145.948 39.7242C147.359 38.9307 148.985 38.5332 150.822 38.5332ZM81.2974 33.9038V37.7842H72.3881V43.7406H80.29V47.5178H72.3881V53.8133H81.2974V57.6938H67.6821V33.9038H81.2974ZM105.336 34.1765V38.8394H109.505V42.753H105.336V51.8744C105.336 52.5094 105.487 52.9688 105.789 53.2527C106.092 53.5366 106.602 53.6775 107.32 53.6775H109.505V57.6936H106.545C102.578 57.6936 100.595 55.7423 100.595 51.8405V42.753H98.3755V38.8394H100.595V34.1765H105.336ZM137.141 34.1765V38.8394H141.309V42.753H137.141V51.8744C137.141 52.5094 137.291 52.9688 137.594 53.2527C137.897 53.5366 138.406 53.6775 139.124 53.6775H141.309V57.6936H138.35C134.383 57.6936 132.399 55.7423 132.399 51.8405V42.753H130.18V38.8394H132.399V34.1765H137.141ZM119.388 42.72C118.514 42.72 117.708 42.9346 116.968 43.3668C116.228 43.7974 115.629 44.4272 115.169 45.2539C114.71 46.0835 114.48 47.0636 114.48 48.1978C114.48 49.3334 114.71 50.3253 115.169 51.177C115.629 52.0273 116.234 52.6792 116.985 53.1335C117.736 53.5877 118.537 53.8134 119.388 53.8134C120.262 53.8134 121.08 53.5936 121.844 53.1504C122.604 52.7087 123.21 52.073 123.659 51.2449C124.106 50.4167 124.331 49.4234 124.331 48.2656C124.331 47.1093 124.106 46.1167 123.659 45.2885C123.21 44.4604 122.604 43.8247 121.844 43.383C121.08 42.9398 120.262 42.72 119.388 42.72ZM150.688 42.4468C149.522 42.4468 148.542 42.8045 147.745 43.519C146.951 44.2336 146.463 45.2262 146.283 46.4961H155.126C155.102 45.272 154.666 44.2904 153.814 43.5537C152.963 42.8155 151.92 42.4468 150.688 42.4468Z" fill="white"/>
<path fill-rule="evenodd" clip-rule="evenodd" d="M32.7195 0L56.3691 23.995V57.694H50.8814V26.2928L28.8353 3.93205L32.7195 0ZM17.2046 15.7276L34.4085 33.1874V57.6941H0V33.1874L17.2046 15.7276ZM24.9619 7.86374L45.3944 28.5911V57.6936H39.9068V30.889L21.0885 11.7958L24.9619 7.86374Z" fill="white"/>
</g>
<defs>
<clipPath id="clip0_4_482">
<rect width="160" height="58" fill="white"/>
</clipPath>
</defs>
</svg>
