<svg width="20" height="12" viewBox="0 0 20 12" fill="none" xmlns="http://www.w3.org/2000/svg">
<path d="M19.4582 4.6708L15.8364 0.953735C15.3393 0.471893 14.5581 0.471893 14.061 0.8849C13.5639 1.36674 13.5639 2.12392 13.99 2.60576L16.0494 4.73963H1.27827C0.568121 4.73963 0 5.29031 0 5.97866C0 6.667 0.568121 7.21768 1.27827 7.21768H16.1204L14.061 9.35155C13.5639 9.83339 13.6349 10.5906 14.132 11.0724C14.3451 11.2789 14.7001 11.4166 14.9842 11.4166C15.3393 11.4166 15.6233 11.2789 15.9074 11.0724L19.5292 7.35535C20.1683 6.52933 20.1683 5.42798 19.4582 4.6708Z" fill="#45525B"/>
</svg>
